<?xml version="1.0" encoding="utf-8"?>
<!-- Generator: Adobe Illustrator 19.1.0, SVG Export Plug-In . SVG Version: 6.00 Build 0)  -->
<!DOCTYPE svg PUBLIC "-//W3C//DTD SVG 1.1//EN" "http://www.w3.org/Graphics/SVG/1.1/DTD/svg11.dtd" [
	<!ENTITY ns_extend "http://ns.adobe.com/Extensibility/1.0/">
	<!ENTITY ns_ai "http://ns.adobe.com/AdobeIllustrator/10.0/">
	<!ENTITY ns_graphs "http://ns.adobe.com/Graphs/1.0/">
	<!ENTITY ns_vars "http://ns.adobe.com/Variables/1.0/">
	<!ENTITY ns_imrep "http://ns.adobe.com/ImageReplacement/1.0/">
	<!ENTITY ns_sfw "http://ns.adobe.com/SaveForWeb/1.0/">
	<!ENTITY ns_custom "http://ns.adobe.com/GenericCustomNamespace/1.0/">
	<!ENTITY ns_adobe_xpath "http://ns.adobe.com/XPath/1.0/">
]>
<svg version="1.1" id="Layer_1" xmlns:x="&ns_extend;" xmlns:i="&ns_ai;" xmlns:graph="&ns_graphs;"
	 xmlns="http://www.w3.org/2000/svg" xmlns:xlink="http://www.w3.org/1999/xlink" x="0px" y="0px" viewBox="0 0 25 22"
	 style="enable-background:new 0 0 25 22;" xml:space="preserve">
<style type="text/css">
	.st0{opacity:0.6;}
	.st1{fill:#808081;}
</style>
<metadata>
	<sfw  xmlns="&ns_sfw;">
		<slices></slices>
		<sliceSourceBounds  width="24.6" height="21.6" x="0" y="-21.6" bottomLeftOrigin="true"></sliceSourceBounds>
	</sfw>
</metadata>
<g class="st0">
	<g>
		<g>
			<path class="st1" d="M19.1,7l3.1,3.1H8.4c-0.4,0-0.7,0.3-0.7,0.7s0.3,0.7,0.7,0.7h13.8l-3.1,3.1c-0.1,0.1-0.2,0.3-0.2,0.5
				c0,0.2,0.1,0.4,0.2,0.5c0.3,0.3,0.7,0.3,1,0l4.3-4.3c0.3-0.3,0.3-0.7,0-1L20.1,6c-0.3-0.3-0.7-0.3-1,0C18.8,6.3,18.8,6.8,19.1,7
				L19.1,7z M19.1,7"/>
		</g>
		<path class="st1" d="M16.5,20.9v-6.8c0-0.4-0.3-0.7-0.7-0.7c-0.4,0-0.7,0.3-0.7,0.7v6.2H1.4V1.4h13.7v6.2c0,0.4,0.3,0.7,0.7,0.7
			c0.4,0,0.7-0.3,0.7-0.7V0.7c0-0.4-0.3-0.7-0.7-0.7H0.7C0.3,0,0,0.3,0,0.7v20.2c0,0.4,0.3,0.7,0.7,0.7h15.1
			C16.2,21.6,16.5,21.3,16.5,20.9L16.5,20.9z M16.5,20.9"/>
	</g>
</g>
</svg>
