<?xml version="1.0" encoding="utf-8"?>
<!-- Generator: Adobe Illustrator 19.1.0, SVG Export Plug-In . SVG Version: 6.00 Build 0)  -->
<!DOCTYPE svg PUBLIC "-//W3C//DTD SVG 1.1//EN" "http://www.w3.org/Graphics/SVG/1.1/DTD/svg11.dtd" [
	<!ENTITY ns_extend "http://ns.adobe.com/Extensibility/1.0/">
	<!ENTITY ns_ai "http://ns.adobe.com/AdobeIllustrator/10.0/">
	<!ENTITY ns_graphs "http://ns.adobe.com/Graphs/1.0/">
	<!ENTITY ns_vars "http://ns.adobe.com/Variables/1.0/">
	<!ENTITY ns_imrep "http://ns.adobe.com/ImageReplacement/1.0/">
	<!ENTITY ns_sfw "http://ns.adobe.com/SaveForWeb/1.0/">
	<!ENTITY ns_custom "http://ns.adobe.com/GenericCustomNamespace/1.0/">
	<!ENTITY ns_adobe_xpath "http://ns.adobe.com/XPath/1.0/">
]>
<svg version="1.1" id="Layer_1" xmlns:x="&ns_extend;" xmlns:i="&ns_ai;" xmlns:graph="&ns_graphs;"
	 xmlns="http://www.w3.org/2000/svg" xmlns:xlink="http://www.w3.org/1999/xlink" x="0px" y="0px" viewBox="0 0 35 25"
	 style="enable-background:new 0 0 35 25;" xml:space="preserve">
<style type="text/css">
	.st0{fill:#FFFFFF;stroke:#03A4C5;stroke-width:0.1727;stroke-miterlimit:10;}
	.st1{fill:#FFFFFF;}
</style>
<metadata>
	<sfw  xmlns="&ns_sfw;">
		<slices></slices>
		<sliceSourceBounds  bottomLeftOrigin="true" width="34.6" height="25" x="0" y="-25"></sliceSourceBounds>
	</sfw>
</metadata>
<g>
	<path class="st0" d="M32.6,22.9"/>
	<g>
		<path class="st1" d="M0.9,0C0.4,0,0,0.4,0,0.9v23.3C0,24.6,0.4,25,0.9,25h32.9c0.5,0,0.9-0.4,0.9-0.9V0.9c0-0.5-0.4-0.9-0.9-0.9
			H0.9z M32.9,23.3H1.7V1.7h31.2V23.3z"/>
	</g>
</g>
<g>
	<path class="st0" d="M5.2,7.7"/>
	<g>
		<path class="st1" d="M5.8,5.8C5.5,5.8,5.2,6,5.1,6.2C5,6.4,4.9,6.7,5,6.9C5,7.1,5.2,7.3,5.4,7.4l11.5,7.1c0.3,0.2,0.6,0.2,0.9,0
			l11.5-7.1c0.2-0.1,0.3-0.3,0.4-0.5c0.1-0.2,0-0.5-0.1-0.6c-0.2-0.2-0.4-0.4-0.7-0.4c-0.2,0-0.3,0-0.4,0.1l-11.1,6.8l-0.1,0
			l-11-6.8C6.1,5.9,6,5.8,5.8,5.8z"/>
	</g>
</g>
</svg>
