<?xml version="1.0" encoding="utf-8"?>
<!-- Generator: Adobe Illustrator 19.1.0, SVG Export Plug-In . SVG Version: 6.00 Build 0)  -->
<!DOCTYPE svg PUBLIC "-//W3C//DTD SVG 1.1//EN" "http://www.w3.org/Graphics/SVG/1.1/DTD/svg11.dtd" [
	<!ENTITY ns_extend "http://ns.adobe.com/Extensibility/1.0/">
	<!ENTITY ns_ai "http://ns.adobe.com/AdobeIllustrator/10.0/">
	<!ENTITY ns_graphs "http://ns.adobe.com/Graphs/1.0/">
	<!ENTITY ns_vars "http://ns.adobe.com/Variables/1.0/">
	<!ENTITY ns_imrep "http://ns.adobe.com/ImageReplacement/1.0/">
	<!ENTITY ns_sfw "http://ns.adobe.com/SaveForWeb/1.0/">
	<!ENTITY ns_custom "http://ns.adobe.com/GenericCustomNamespace/1.0/">
	<!ENTITY ns_adobe_xpath "http://ns.adobe.com/XPath/1.0/">
]>
<svg version="1.1" id="Layer_1" xmlns:x="&ns_extend;" xmlns:i="&ns_ai;" xmlns:graph="&ns_graphs;"
	 xmlns="http://www.w3.org/2000/svg" xmlns:xlink="http://www.w3.org/1999/xlink" x="0px" y="0px" viewBox="0 0 25 25"
	 style="enable-background:new 0 0 25 25;" xml:space="preserve">
<style type="text/css">
	.st0{fill:#FFFFFF;}
</style>
<metadata>
	<sfw  xmlns="&ns_sfw;">
		<slices></slices>
		<sliceSourceBounds  bottomLeftOrigin="true" width="25" height="24.9" x="0" y="-24.9"></sliceSourceBounds>
	</sfw>
</metadata>
<g>
	<path class="st0" d="M24.4,19.7l-3.9-3.9c-0.8-0.8-2-0.7-2.8,0.1l-1.9,1.9c-0.1-0.1-0.2-0.1-0.4-0.2c-1.2-0.7-2.9-1.6-4.7-3.4
		C9,12.5,8,10.8,7.3,9.6C7.3,9.5,7.2,9.3,7.1,9.2l1.3-1.3l0.6-0.6c0.8-0.8,0.8-2.1,0.1-2.8L5.3,0.6c-0.8-0.8-2-0.7-2.8,0.1L1.3,1.7
		l0,0C1,2.2,0.7,2.7,0.5,3.3C0.3,3.9,0.1,4.4,0.1,4.9C-0.4,9.1,1.5,13,6.7,18.3c7.2,7.2,13.1,6.7,13.3,6.7c0.5-0.1,1.1-0.2,1.6-0.4
		c0.6-0.2,1.1-0.5,1.6-0.9l0,0l1.1-1.1C25.2,21.8,25.2,20.5,24.4,19.7L24.4,19.7z M23.5,21.7L23,22.2l-0.2,0.2
		c-0.3,0.3-0.8,0.7-1.6,1c-0.4,0.2-0.9,0.3-1.3,0.3c-0.1,0-5.5,0.5-12.3-6.3C1.8,11.6,0.9,8.3,1.3,5.1c0.1-0.4,0.2-0.9,0.3-1.3
		c0.3-0.8,0.7-1.3,1-1.6l0.7-0.7c0.3-0.3,0.8-0.3,1.1-0.1l3.9,3.9c0.3,0.3,0.3,0.8-0.1,1.1L5.6,9l0.2,0.4C6,9.6,6.1,9.9,6.3,10.2
		c0.7,1.3,1.7,3.1,3.6,5c1.9,1.9,3.7,2.9,4.9,3.6c0.3,0.2,0.5,0.3,0.8,0.4l0.4,0.2l2.6-2.6c0.3-0.3,0.8-0.3,1.1-0.1l3.9,3.9
		C23.9,20.9,23.9,21.4,23.5,21.7L23.5,21.7z M23.5,21.7"/>
</g>
</svg>
