<?xml version="1.0" encoding="utf-8"?>
<!-- Generator: Adobe Illustrator 19.1.0, SVG Export Plug-In . SVG Version: 6.00 Build 0)  -->
<!DOCTYPE svg PUBLIC "-//W3C//DTD SVG 1.1//EN" "http://www.w3.org/Graphics/SVG/1.1/DTD/svg11.dtd" [
	<!ENTITY ns_extend "http://ns.adobe.com/Extensibility/1.0/">
	<!ENTITY ns_ai "http://ns.adobe.com/AdobeIllustrator/10.0/">
	<!ENTITY ns_graphs "http://ns.adobe.com/Graphs/1.0/">
	<!ENTITY ns_vars "http://ns.adobe.com/Variables/1.0/">
	<!ENTITY ns_imrep "http://ns.adobe.com/ImageReplacement/1.0/">
	<!ENTITY ns_sfw "http://ns.adobe.com/SaveForWeb/1.0/">
	<!ENTITY ns_custom "http://ns.adobe.com/GenericCustomNamespace/1.0/">
	<!ENTITY ns_adobe_xpath "http://ns.adobe.com/XPath/1.0/">
]>
<svg version="1.1" id="Layer_1" xmlns:x="&ns_extend;" xmlns:i="&ns_ai;" xmlns:graph="&ns_graphs;"
	 xmlns="http://www.w3.org/2000/svg" xmlns:xlink="http://www.w3.org/1999/xlink" x="0px" y="0px" viewBox="0 0 66 66"
	 style="enable-background:new 0 0 66 66;" xml:space="preserve">
<style type="text/css">
	.st0{fill:#515151;}
	.st1{fill:#FFFFFF;}
	.st2{fill:#03A4C5;}
</style>
<metadata>
	<sfw  xmlns="&ns_sfw;">
		<slices></slices>
		<sliceSourceBounds  width="66" height="66" bottomLeftOrigin="true" x="0" y="-66"></sliceSourceBounds>
	</sfw>
</metadata>
<circle class="st0" cx="33" cy="33" r="33"/>
<g>
	<path class="st1" d="M16.3,42.9c-0.3,0-0.7-0.2-0.8-0.5l-5.3-15.1c-0.1-0.3,0.1-0.5,0.4-0.5h1.1c0.3,0,0.7,0.2,0.8,0.5l4.4,13.2
		l4.4-13.2c0.1-0.3,0.4-0.5,0.8-0.5h1c0.3,0,0.5,0.3,0.4,0.5l-5.3,15.1c-0.1,0.3-0.4,0.5-0.8,0.5H16.3z"/>
	<path class="st1" d="M25.9,42.9c-0.3,0-0.6-0.3-0.6-0.6v-15c0-0.3,0.3-0.6,0.6-0.6h0.9c0.3,0,0.6,0.3,0.6,0.6v15
		c0,0.3-0.3,0.6-0.6,0.6H25.9z"/>
	<path class="st1" d="M31.2,38v-9.5h-1.3c-0.3,0-0.6-0.3-0.6-0.6v-0.7c0-0.3,0.3-0.6,0.6-0.6h1.3l0.2-3.5c0-0.3,0.3-0.6,0.6-0.6h0.7
		c0.3,0,0.6,0.3,0.6,0.6v3.5h4.5c0.3,0,0.6,0.3,0.6,0.6V28c0,0.3-0.3,0.6-0.6,0.6h-4.5v9.2c0,2.6,1.1,3.8,3.4,3.8
		c0.5,0,1.1,0,1.7-0.1c0.3-0.1,0.6,0.1,0.6,0.5v0.5c0,0.3-0.3,0.6-0.6,0.7c-0.5,0.1-1.2,0.2-1.7,0.2C33.1,43.3,31.2,41.7,31.2,38"/>
	<path class="st1" d="M49.9,39v-2.4C48.6,36.3,47,36,45.4,36c-2.4,0-3.5,1-3.5,2.7c0,1.8,1.2,2.7,3.2,2.7C47.2,41.4,49,40.2,49.9,39
		 M46.1,26.4c3.8,0,5.8,1.7,5.8,5.2v10.7c0,0.3-0.3,0.6-0.6,0.6h-0.7c-0.3,0-0.6-0.3-0.6-0.6L50,41.2c-1.2,1.2-3.1,2.1-5.1,2.1
		c-3.2,0-4.9-1.5-4.9-4.5c0-3.2,2.3-4.5,5.7-4.5c1.4,0,3.2,0.3,4.3,0.7V32c0-2.7-1.2-3.8-3.8-3.8c-2.5,0-3.8,1.5-3.8,3.2
		c0,0.3-0.3,0.5-0.6,0.5h-0.9c-0.3,0-0.6-0.2-0.6-0.6C40.3,29,42.2,26.4,46.1,26.4"/>
	<path class="st2" d="M54.5,42.9c-0.7,0-1.2-0.4-1.2-1.3c0-0.9,0.5-1.4,1.2-1.4c0.8,0,1.3,0.4,1.3,1.4
		C55.8,42.5,55.3,42.9,54.5,42.9"/>
</g>
</svg>
