<?xml version="1.0" encoding="utf-8"?>
<!-- Generator: Adobe Illustrator 19.1.0, SVG Export Plug-In . SVG Version: 6.00 Build 0)  -->
<!DOCTYPE svg PUBLIC "-//W3C//DTD SVG 1.1//EN" "http://www.w3.org/Graphics/SVG/1.1/DTD/svg11.dtd" [
	<!ENTITY ns_extend "http://ns.adobe.com/Extensibility/1.0/">
	<!ENTITY ns_ai "http://ns.adobe.com/AdobeIllustrator/10.0/">
	<!ENTITY ns_graphs "http://ns.adobe.com/Graphs/1.0/">
	<!ENTITY ns_vars "http://ns.adobe.com/Variables/1.0/">
	<!ENTITY ns_imrep "http://ns.adobe.com/ImageReplacement/1.0/">
	<!ENTITY ns_sfw "http://ns.adobe.com/SaveForWeb/1.0/">
	<!ENTITY ns_custom "http://ns.adobe.com/GenericCustomNamespace/1.0/">
	<!ENTITY ns_adobe_xpath "http://ns.adobe.com/XPath/1.0/">
]>
<svg version="1.1" id="Layer_1" xmlns:x="&ns_extend;" xmlns:i="&ns_ai;" xmlns:graph="&ns_graphs;"
	 xmlns="http://www.w3.org/2000/svg" xmlns:xlink="http://www.w3.org/1999/xlink" x="0px" y="0px" viewBox="0 0 66 66"
	 style="enable-background:new 0 0 66 66;" xml:space="preserve">
<style type="text/css">
	.st0{fill:#E4E4E3;}
</style>
<metadata>
	<sfw  xmlns="&ns_sfw;">
		<slices></slices>
		<sliceSourceBounds  width="66" height="66" x="0" y="-66" bottomLeftOrigin="true"></sliceSourceBounds>
	</sfw>
</metadata>
<g>
	<g>
		<path class="st0" d="M61.6,16.5C52.5,0.7,32.3-4.7,16.5,4.4C0.7,13.5-4.7,33.7,4.4,49.5c9.1,15.8,29.3,21.2,45.1,12.1
			C65.3,52.5,70.7,32.3,61.6,16.5L61.6,16.5z M46.2,55.9c-12.6,7.3-28.8,3-36.1-9.7c-7.3-12.6-3-28.8,9.7-36.1
			c12.6-7.3,28.8-3,36.1,9.7C63.1,32.4,58.8,48.6,46.2,55.9L46.2,55.9z M44.9,31.7L27.6,21.6c-1.6-0.9-2.8-0.2-2.8,1.6l0.1,20
			c0,1.8,1.3,2.6,2.9,1.7L44.9,35C46.4,34.1,46.5,32.6,44.9,31.7L44.9,31.7z M44.9,31.7"/>
	</g>
</g>
</svg>
